# AST/ASF file generated using VICON BodyLanguage
# -----------------------------------------------
:version 1.10
:name VICON
:units
  mass 1.0
  length 0.45
  angle deg
:documentation
   .ast/.asf automatically generated from VICON data using
   VICON BodyBuilder and BodyLanguage model FoxedUp or BRILLIANT.MOD
:root
   order TX TY TZ RX RY RZ
   axis XYZ
   position 0 0 0  
   orientation 0 0 0 
:bonedata
  begin
     id 1 
     name lhipjoint
     direction 0.690799 -0.707083 0.151096 
     length 2.54797 
     axis 0 0 0  XYZ
  end
  begin
     id 2 
     name lfemur
     direction 0.34202 -0.939693 0  
     length 7.21646  
     axis 0 0 20  XYZ
    dof rx ry rz
    limits (-160.0 20.0)
           (-70.0 70.0)
           (-60.0 70.0)
  end
  begin
     id 3 
     name ltibia
     direction 0.34202 -0.939693 0   
     length 8.16759   
     axis 0 0 20   XYZ
    dof rx
    limits (-10.0 170.0)
  end
  begin
     id 4 
     name lfoot
     direction 0.0487203 -0.133858 0.989802   
     length 1.93375   
     axis -90 7.62852e-016 20   XYZ
    dof rx rz
    limits (-45.0 90.0)
           (-70.0 20.0)
  end
  begin
     id 5 
     name ltoes
     direction 1.53453e-011 -4.21783e-011 1   
     length 0.979747   
     axis -90 7.62852e-016 20   XYZ
    dof rx
    limits (-90.0 20.0)
  end
  begin
     id 6 
     name rhipjoint
     direction -0.694693 -0.703425 0.150315   
     length 2.56122  
     axis 0 0 0  XYZ 
  end
  begin
     id 7 
     name rfemur
     direction -0.34202 -0.939693 0   
     length 7.36786   
     axis 0 0 -20   XYZ
    dof rx ry rz
    limits (-160.0 20.0)
           (-70.0 70.0)
           (-70.0 60.0)
  end
  begin
     id 8 
     name rtibia
     direction -0.34202 -0.939693 0   
     length 8.07288   
     axis 0 0 -20   XYZ
    dof rx
    limits (-10.0 170.0)
 end
 begin
     id 9 
     name rfoot
     direction -0.0428397 -0.117701 0.992125   
     length 1.88295  
     axis -90 -7.62852e-016 -20   XYZ
    dof rx rz
    limits (-45.0 90.0)
           (-20.0 70.0)
  end
  begin
     id 10 
     name rtoes
     direction -1.53456e-011 -4.2187e-011 1   
     length 0.955578   
     axis -90 -7.62852e-016 -20   XYZ
    dof rx
    limits (-90.0 20.0)
  end
  begin
     id 11 
     name lowerback
     direction 0.0288145 0.999398 -0.0193241   
     length 1.92149   
     axis 0 0 0   XYZ
    dof rx ry rz
    limits (-20.0 45.0)
           (-30.0 30.0)
           (-30.0 30.0)
  end
  begin
     id 12 
     name upperback
     direction 0.0233784 0.998099 0.0570278   
     length 1.90435   
     axis 0 0 0   XYZ
    dof rx ry rz
    limits (-20.0 45.0)
           (-30.0 30.0)
           (-30.0 30.0)
  end
  begin
     id 13 
     name thorax
     direction 0.0096694 0.997833 0.0650817   
     length 1.9111   
     axis 0 0 0   XYZ
    dof rx ry rz
    limits (-20.0 45.0)
           (-30.0 30.0)
           (-30.0 30.0)
  end
  begin
     id 14 
     name lowerneck
     direction 0.00516803 0.999916 0.0118722   
     length 1.74664   
     axis 0 0 0   XYZ
    dof rx ry rz
    limits (-20.0 45.0)
           (-30.0 30.0)
           (-30.0 30.0)
  end
  begin
     id 15 
     name upperneck
     direction -0.0510851 0.996117 -0.071696   
     length 1.68498   
     axis 0 0 0   XYZ
    dof rx ry rz
    limits (-20.0 45.0)
           (-30.0 30.0)
           (-30.0 30.0)
  end
  begin
     id 16
     name head
     direction -0.019188 0.999436 -0.0275702  
     length 1.83483  
     axis 0 0 0   XYZ
    dof rx ry rz
    limits (-20.0 45.0)
           (-30.0 30.0)
           (-30.0 30.0)
  end
  begin
     id 17 
     name lclavicle
     direction 0.967006 0.248456 -0.0562957  
     length 3.39395  
     axis 0 0 0   XYZ
    dof ry rz
    limits (-20.0 10.0)
           (0.0 20.0)
  end
  begin
     id 18 
     name lhumerus
     direction 1 -4.48962e-011 -5.62711e-019   
     length 5.24318   
     axis 180 -30 -90   XYZ
    dof rx ry rz
    limits (-60.0 90.0)
           (-90.0 90.0)
           (-90.0 90.0)
  end
  begin
     id 19
     name lradius
     direction 1 -4.48966e-011 7.90625e-027   
     length 2.98999   
     axis 180 -30 -90   XYZ
    dof rx
    limits (-10.0 170.0)
  end
  begin
     id 20
     name lwrist
     direction 1 -4.48959e-011 1.61068e-026   
     length 1.49499   
     axis -9.31229e-015 90 90   XYZ
    dof ry
    limits (-180.0 0.0)
 end
  begin
     id 21 
     name lhand
     direction 1 -4.49017e-011 3.22136e-026   
     length 0.726745   
     axis -2.0555e-014 90 90   XYZ
    dof rx rz
    limits (-90.0 90.0)
           (-45.0 45.0)
  end
  begin
     id 22 
     name lfingers
     direction 1 -4.4898e-011 6.44272e-026   
     length 0.58592   
     axis -4.11101e-014 90 90   XYZ
    dof rx
    limits (0.0 90.0)
  end
  begin
     id 23
     name lthumb
     direction 0.707107 -6.34922e-011 0.707107   
     length 0.841268   
     axis -90 45 2.85299e-015   XYZ
    dof rx rz
    limits (-45.0 45.0)
           (-45.0 45.0)
  end
  begin
     id 24 
     name rclavicle
     direction -0.972232 0.230238 0.0419005   
     length 3.40416  
     axis 0 0 0   XYZ 
    dof ry rz
    limits (-10.0 20.0)
           (-20.0 0.0)
  end
  begin
     id 25 
     name rhumerus
     direction -1 -4.48976e-011 2.48487e-027  
     length 5.37045   
     axis 180 30 90   XYZ
    dof rx ry rz
    limits (-90.0 60.0)
           (-90.0 90.0)
           (-90.0 90.0)
  end
  begin
     id 26 
     name rradius
     direction -1 -4.48942e-011 7.87951e-027   
     length 2.92792   
     axis 180 30 90   XYZ
    dof rx
    limits (-10.0 170.0)
  end
  begin
     id 27 
     name rwrist
     direction -1 -4.48969e-011 1.61068e-026   
     length 1.46396   
     axis -9.31229e-015 -90 -90   XYZ
    dof ry
    limits (-180.0 0.0)
  end
  begin
     id 28
     name rhand
     direction -1 -4.49043e-011 3.22136e-026   
     length 0.784497   
     axis -2.0555e-014 -90 -90   XYZ
    dof rx rz
    limits (-90.0 90.0)
           (-45.0 45.0)
  end
  begin
     id 29
     name rfingers
     direction -1 -4.48823e-011 6.44272e-026   
     length 0.632482   
     axis -4.11101e-014 -90 -90   XYZ
    dof rx
    limits (0.0 90.0)
  end
  begin
     id 30
     name rthumb
     direction -0.707107 -6.34923e-011 0.707107   
     length 0.908121   
     axis -90 -45 -2.85299e-015   XYZ
    dof rx rz
    limits (-45.0 45.0)
           (-45.0 45.0)
  end
:hierarchy
  begin
    root lhipjoint rhipjoint lowerback
    lhipjoint lfemur
    lfemur ltibia
    ltibia lfoot
    lfoot ltoes
    rhipjoint rfemur
    rfemur rtibia
    rtibia rfoot
    rfoot rtoes
    lowerback upperback
    upperback thorax
    thorax lowerneck lclavicle rclavicle
    lowerneck upperneck
    upperneck head
    lclavicle lhumerus
    lhumerus lradius
    lradius lwrist
    lwrist lhand lthumb
    lhand lfingers
    rclavicle rhumerus
    rhumerus rradius
    rradius rwrist
    rwrist rhand rthumb
    rhand rfingers
  end

#!OML:ASF E:\Style6\Style6.ASF
:FULLY-SPECIFIED
:DEGREES
2059
root 0.495177 17.1876 -0.930051 12.6554 -4.3064 -1.9476
lowerback 8.579 -0.0145243 4.27585
upperback 3.15485 0.361428 1.83127
thorax -1.52365 0.187279 -0.545531
lowerneck 6.76583 3.05637 1.23391
upperneck -14.8961 2.85067 -9.93741
head -5.41994 2.02989 -3.51242
rclavicle 9.93923e-016 -1.35174e-014
rhumerus 9.57598 22.1 -94.2411
rradius 136.911
rwrist 50.9657
rhand 31.1611 -5.70327
rfingers 7.12502
rthumb 54.7477 -24.0229
lclavicle 9.93923e-016 -1.35174e-014
lhumerus 6.21814 -20.5024 92.3777
lradius 132.16
lwrist -33.9329
lhand 6.89284 36.5169
lfingers 7.12502
lthumb 32.1737 63.6879
rfemur -40.2995 -5.22769 21.9043
rtibia 43.4152
rfoot -9.41248 0.992251
rtoes -13.5293
lfemur -38.9493 8.84948 -18.1007
ltibia 47.395
lfoot -15.1155 0.671564
ltoes -17.758
2060
root 0.510409 17.1863 -0.922074 12.6555 -4.83093 -1.91954
lowerback 8.64311 -0.0619058 4.25039
upperback 3.00903 0.306658 1.85636
thorax -1.71272 0.154905 -0.500432
lowerneck 6.80021 2.54866 1.00559
upperneck -14.8153 2.17232 -9.60966
head -5.45068 1.68432 -3.32866
rclavicle 6.55989e-015 1.98785e-015
rhumerus 9.51635 22.1865 -94.2812
rradius 136.889
rwrist 50.8643
rhand 31.3552 -5.63724
rfingers 7.12502
rthumb 54.921 -23.8329
lclavicle 6.55989e-015 1.98785e-015
lhumerus 5.96749 -20.3785 92.5777
lradius 132.199
lwrist -34.0843
lhand 6.91573 36.4732
lfingers 7.12502
lthumb 32.1955 63.6397
rfemur -40.3018 -4.8393 21.7304
rtibia 43.3394
rfoot -9.31583 1.10256
rtoes -13.6904
lfemur -38.8239 8.98528 -18.2115
ltibia 47.4283
lfoot -15.1933 1.10663
ltoes -17.9043
2061
root 0.527161 17.189 -0.913648 12.5555 -5.46065 -1.85333
lowerback 8.50128 -0.129697 4.23659
upperback 3.0987 0.201168 1.77092
thorax -1.54537 0.106284 -0.570354
lowerneck 6.87277 2.03717 0.993038
upperneck -15.0306 1.48139 -9.37104
head -5.57246 1.33561 -3.21414
rclavicle 1.59028e-015 9.93923e-015
rhumerus 9.75217 22.366 -94.442
rradius 136.844
rwrist 50.8746
rhand 31.6085 -5.47004
rfingers 7.12502
rthumb 55.1469 -23.5019
lclavicle 1.59028e-015 9.93923e-015
lhumerus 6.01871 -20.1789 92.4699
lradius 132.316
lwrist -34.2671
lhand 7.36368 36.4976
lfingers 7.12502
lthumb 32.6218 63.5768
rfemur -40.2033 -4.39994 21.4887
rtibia 43.256
rfoot -9.2376 1.29217
rtoes -13.9054
lfemur -38.5633 9.17524 -18.3688
ltibia 47.454
lfoot -15.3073 1.5797
ltoes -17.8313
2062
root 0.543511 17.1943 -0.903068 12.4682 -6.21592 -1.84717
lowerback 8.40497 -0.177076 4.25044
upperback 3.16671 0.12817 1.66544
thorax -1.42432 0.0729963 -0.679966
lowerneck 6.4903 1.62337 1.13898
upperneck -14.6989 0.989827 -9.15199
head -5.43029 1.05287 -3.12501
rclavicle -5.1684e-015 1.55052e-014
rhumerus 9.92826 22.5728 -94.7275
rradius 136.728
rwrist 50.9542
rhand 31.8575 -5.06265
rfingers 7.12502
rthumb 55.3687 -22.9312
lclavicle -5.1684e-015 1.55052e-014
lhumerus 6.05805 -20.018 92.3206
lradius 132.402
lwrist -34.4167
lhand 7.85834 36.4923
lfingers 7.12502
lthumb 33.0923 63.473
rfemur -40.1106 -3.86378 21.2993
rtibia 43.1721
rfoot -9.1198 1.5069
rtoes -13.8119
lfemur -38.2624 9.42056 -18.4613
ltibia 47.4667
lfoot -15.4165 2.10401
ltoes -17.6647
2063
root 0.561572 17.1952 -0.892397 12.4836 -6.99949 -1.84796
lowerback 8.18863 -0.197651 4.13665
upperback 3.20728 0.0774827 1.68412
thorax -1.26553 0.0498645 -0.592342
lowerneck 5.90076 1.24693 1.28483
upperneck -14.0711 0.556622 -9.03833
head -5.15731 0.79431 -3.06766
rclavicle -5.36719e-015 -7.55382e-015
rhumerus 10.1784 22.6659 -94.7246
rradius 136.73
rwrist 50.8618
rhand 32.1864 -5.0985
rfingers 7.12502
rthumb 55.6611 -22.7479
lclavicle -5.36719e-015 -7.55382e-015
lhumerus 6.1081 -19.8436 92.4146
lradius 132.414
lwrist -34.4618
lhand 8.11363 36.3547
lfingers 7.12502
lthumb 33.3351 63.2836
rfemur -40.1457 -3.29989 21.1072
rtibia 43.0828
rfoot -8.9626 1.76206
rtoes -13.2142
lfemur -38.0792 9.62891 -18.5659
ltibia 47.4899
lfoot -15.4643 2.65637
ltoes -17.5779
2064
root 0.579265 17.1952 -0.882201 12.4373 -7.91919 -1.71068
lowerback 7.82489 -0.247972 3.92828
upperback 3.35706 -0.0331212 1.5912
thorax -0.914694 0.000740465 -0.562317
lowerneck 5.54053 0.817626 1.10915
upperneck -13.8404 0.0407701 -8.49664
head -5.05493 0.499761 -2.83039
rclavicle 3.97569e-016 -3.73715e-014
rhumerus 10.4759 22.781 -94.7067
rradius 136.754
rwrist 50.7108
rhand 31.8533 -5.70494
rfingers 7.12502
rthumb 55.365 -23.5763
lclavicle 3.97569e-016 -3.73715e-014
lhumerus 6.22326 -19.7491 92.2449
lradius 132.439
lwrist -34.3918
lhand 7.78653 36.5178
lfingers 7.12502
lthumb 33.024 63.5129
rfemur -40.1634 -2.71791 20.7651
rtibia 42.991
rfoot -8.79514 2.11288
rtoes -12.4419
lfemur -37.8101 9.92084 -18.836
ltibia 47.5267
lfoot -15.5339 3.23422
ltoes -17.5899
